<svg xmlns="http://www.w3.org/2000/svg" viewBox="0 0 629.31 169.75"><defs><style>.logo_product_svg{fill:#7e7f7f;}</style></defs><title>アセット 3</title><g id="レイヤー_2" data-name="レイヤー 2"><g id="レイヤー_1-2" data-name="レイヤー 1"><path class="logo_product_svg" d="M421,169.75a9.62,9.62,0,0,1-9.6-9.6V141.33a9.6,9.6,0,0,1,19.2,0v18.82A9.62,9.62,0,0,1,421,169.75Zm0-35.26a6.85,6.85,0,0,0-6.84,6.84v18.82a6.84,6.84,0,0,0,13.68,0V141.33A6.85,6.85,0,0,0,421,134.49Z"/><path class="logo_product_svg" d="M521.3,169.75a9.62,9.62,0,0,1-9.6-9.6V141.33a9.6,9.6,0,0,1,19.2,0v18.82A9.62,9.62,0,0,1,521.3,169.75Zm0-35.26a6.85,6.85,0,0,0-6.84,6.84v18.82a6.84,6.84,0,0,0,13.68,0V141.33A6.85,6.85,0,0,0,521.3,134.49Z"/><path class="logo_product_svg" d="M119.55,169h-9.39V132.46h9c6,0,10.57,3.55,10.57,9.55a8.35,8.35,0,0,1-5.7,8.22,8.9,8.9,0,0,1,6.27,8.83C130.28,165.58,126,169,119.55,169Zm-.72-34.09h-5.9V149.1h5.9c4.41,0,8.11-2.06,8.11-7.09S123.24,134.93,118.83,134.93Zm.41,16.63h-6.31v15h6.31c5,0,8.26-2.77,8.26-7.49S124.22,151.56,119.24,151.56Z"/><path class="logo_product_svg" d="M219.82,169h-9.39V132.46h9c6.06,0,10.57,3.55,10.57,9.55a8.35,8.35,0,0,1-5.7,8.22,8.9,8.9,0,0,1,6.27,8.83C230.55,165.58,226.24,169,219.82,169Zm-.72-34.09h-5.9V149.1h5.9c4.41,0,8.11-2.06,8.11-7.09S223.51,134.93,219.1,134.93Zm.41,16.63H213.2v15h6.31c5,0,8.27-2.77,8.27-7.49S224.49,151.56,219.51,151.56Z"/><path class="logo_product_svg" d="M623.57,135.44,617,141.3v-3.14l6.62-5.7h2.62V169h-2.62Z"/><path class="logo_product_svg" d="M20,169.75a9.61,9.61,0,0,1-9.6-9.6V141.33a9.6,9.6,0,1,1,19.19,0H26.78a6.84,6.84,0,1,0-13.67,0v18.82a6.84,6.84,0,1,0,13.67,0h2.76A9.61,9.61,0,0,1,20,169.75Z"/><rect class="logo_product_svg" x="315.94" y="149.36" width="9.64" height="2.76"/><rect y="55.81" width="71.46" height="5.36"/><rect y="24.9" width="71.46" height="5.36"/><rect x="333.35" y="7.27" width="5.37" height="18.25"/><rect x="344.95" y="7.27" width="5.36" height="18.25"/><rect x="370.8" y="24.01" width="33.38" height="5.36"/><polygon points="370.8 104.73 405.16 104.73 407.61 99.36 370.8 99.37 370.8 104.73"/><polygon points="90.91 48.79 145.26 48.78 147.6 43.42 90.91 43.42 90.91 48.79"/><rect x="226.29" y="7.72" width="5.36" height="18.24"/><rect x="237.89" y="7.72" width="5.36" height="18.24"/><polygon points="39.45 19.53 38.39 0 33.02 0 34.08 19.53 39.45 19.53"/><polygon points="36.62 66.54 38.69 104.73 44.06 104.73 41.99 66.54 36.62 66.54"/><polygon points="112.41 38.05 110.91 28.71 105.48 28.71 106.97 38.05 112.41 38.05"/><polygon points="109.55 54.15 117.66 104.73 123.1 104.73 114.99 54.15 109.55 54.15"/><polygon points="137.06 54.15 129.04 72.52 134.9 72.52 142.91 54.15 137.06 54.15"/><polygon points="184 16.84 165.71 50.39 171.81 50.39 190.11 16.84 184 16.84"/><polygon points="198.87 16.84 192.85 16.84 237.18 104.32 237.38 104.73 243.4 104.73 198.87 16.84"/><polygon points="34.95 35.62 35.75 50.45 41.12 50.45 40.32 35.62 34.95 35.62"/><rect x="311.63" y="7.27" width="5.36" height="45.26"/><polygon points="289.83 52.53 289.93 7.27 284.56 7.27 284.56 52.53 289.83 52.53"/><polygon points="283.88 57.9 267.95 104.73 273.62 104.73 289.55 57.9 283.88 57.9"/><polygon points="317.68 57.9 312.12 57.9 327.76 104.22 327.94 104.73 333.6 104.73 317.68 57.9"/><polygon points="410.06 94 442.03 24.01 436.13 24.01 404.16 94 410.06 94"/><rect x="520.63" y="7.27" width="5.37" height="18.25"/><rect x="532.23" y="7.27" width="5.36" height="18.25"/><rect x="558.08" y="24.01" width="33.38" height="5.36"/><polygon points="558.08 104.73 592.44 104.73 594.89 99.36 558.08 99.37 558.08 104.73"/><rect x="498.91" y="7.27" width="5.36" height="45.26"/><polygon points="477.12 52.53 477.21 7.27 471.85 7.27 471.85 52.53 477.12 52.53"/><polygon points="471.16 57.9 455.23 104.73 460.9 104.73 476.83 57.9 471.16 57.9"/><polygon points="504.96 57.9 499.4 57.9 515.04 104.22 515.22 104.73 520.88 104.73 504.96 57.9"/><polygon points="597.34 94 629.31 24.01 623.41 24.01 591.44 94 597.34 94"/></g></g></svg>