<svg xmlns="http://www.w3.org/2000/svg" viewBox="0 0 350.88 59.91"><defs><style>.text01_svg{fill:#353535;}</style></defs><title>アセット 1</title><g id="レイヤー_2" data-name="レイヤー 2"><g id="レイヤー_1-2" data-name="レイヤー 1"><path class="text01_svg" d="M11.52,17.81v4.08H10.13V17.81H0V16.66H10.13V14.52H2.88V9h7.25V6.84h-4V3.34h-6V2.21h6V0H7.49V2.21h6.94V0h1.34V2.21h5.9V3.34h-5.9v3.5H11.52V9H19v5.54H11.52v2.14H21.84v1.15Zm-7.3-7.75v3.36h5.91V10.06Zm3.27-4.3h6.94V3.34H7.49Zm10.1,4.3H11.52v3.36h6.07Z"/><path class="text01_svg" d="M24.5,8.83l-.84-1.2A23.06,23.06,0,0,0,34.1.05h1.4A25.06,25.06,0,0,0,46.2,7.63l-.86,1.23A27.72,27.72,0,0,1,34.78,1.27,25.62,25.62,0,0,1,24.5,8.83Zm2.79,1h6v8.88h-6V20H26V9.79h1.25Zm4.63,7.71V10.94H27.29V17.5Zm8-11.33V7.32H30V6.17ZM42.87,9.7h.64v7.82c0,.82-.24,1.32-1,1.44a27.51,27.51,0,0,1-2.86.05l-.19-1.25c.74,0,1.92,0,2.23,0s.5-.2.5-.51V10.87H37v11H35.67V9.7h7.2Z"/><path class="text01_svg" d="M68.57,4.15h.74c-.31,10.56-.64,16.3-1.51,17.19a2.14,2.14,0,0,1-1.58.57c-.84,0-2.59,0-3.63-.07l-.19-1.32c1,.07,2.71.1,3.51.07a1.14,1.14,0,0,0,.84-.31c.64-.69.93-5.49,1.2-14.9H60.87a25.26,25.26,0,0,1-2.26,4.68l-1.18-.63v9.44H50.09v1.77H48.77V4.15H51A33.92,33.92,0,0,0,52.82,0l1.37.36c-.45,1.08-1.1,2.47-1.82,3.79h5.06V9.38A24.78,24.78,0,0,0,60.91,0l1.32.24a36.11,36.11,0,0,1-.93,3.89h7.27ZM56.09,10.73V5.35h-6v5.38Zm-6,1.22v5.69h6V12ZM61.44,9.19A25.31,25.31,0,0,1,65,15.27l-1.2.62a24.16,24.16,0,0,0-3.36-6.07Z"/><path class="text01_svg" d="M78.48,6.41a48.39,48.39,0,0,0,1-5.67l1.42.17c-.26,1.8-.63,3.6-1.06,5.38.87,0,1.63-.1,2.26-.1,3,0,4.34,1.66,4.34,5.12s-.67,7-1.56,8.47a2.78,2.78,0,0,1-2.81,1.41,16.32,16.32,0,0,1-3.43-.4l.12-1.35a11.85,11.85,0,0,0,3,.43c1,0,1.42-.14,1.92-.88.79-1.18,1.32-4.42,1.32-7.66,0-2.79-.89-3.84-3.07-3.84-.67,0-1.54,0-2.47.12A41.58,41.58,0,0,1,74.21,20L73,19.37A37.45,37.45,0,0,0,78.14,7.7c-1.8.17-3.72.44-5.28.72l-.24-1.34C74.3,6.84,76.49,6.58,78.48,6.41Zm15.36,8.18-1.39.34a17.18,17.18,0,0,0-4.54-9.39l1.16-.76A18.5,18.5,0,0,1,93.84,14.59Z"/><path class="text01_svg" d="M108.46,3.79c4.68,0,7.82,2.91,7.82,7.37,0,5.47-3.81,8.57-13.18,8.81l-.26-1.44c8.55-.12,11.93-2.59,11.93-7.3,0-3.53-2.4-6-6.55-6-2.52,0-7.47,1.17-11.55,2.28L96.34,6C100.63,5,105.55,3.79,108.46,3.79Z"/><path class="text01_svg" d="M140.62,19.23v1.32H124.94v1.32h-1.36V7.27h-3.82V6h3.82V.36h1.36V6h4.9V.1h1.35V6h5.16V.1h1.36V6h3.89V7.27h-3.89V15.1h-7.87V7.27h-4.9v12Zm-9.43-12v6.56h5.16V7.27Z"/><path class="text01_svg" d="M158.69,12.29a12.46,12.46,0,0,1-2.93-2.86h-2.14a13.08,13.08,0,0,1-3,2.88h.77v3.27c0,2.33-1.13,4.51-3.91,6.36l-1.1-.91C149,19.44,150,17.57,150,15.55V12.7a21.63,21.63,0,0,1-5.71,2.61l-.84-1.05a18,18,0,0,0,8.59-4.83h-5.71V.65H163V9.43h-5.69c2,2.31,5.35,4,8.57,4.73L165,15.29a21.33,21.33,0,0,1-5.84-2.64v9.24H157.8v-9.6Zm-11-7.78h6.19V1.75H147.7Zm0,3.84h6.19V5.47H147.7Zm13.94-3.84V1.75h-6.41V4.51Zm0,3.84V5.47h-6.41V8.35Z"/><path class="text01_svg" d="M189.58,10v1.42H167.74V10Z"/><path class="text01_svg" d="M211.37,20.28l-1.3.91a55.1,55.1,0,0,0-7.41-7.56,30.24,30.24,0,0,1-9.27,7.54l-.93-1.2c6.6-3.14,12.24-10.06,13.87-15.43H193.9V3.19h13.27l1,.58a28.65,28.65,0,0,1-4.68,8.78A70.82,70.82,0,0,1,211.37,20.28Z"/><path class="text01_svg" d="M220.23,8.74a57.47,57.47,0,0,1,6.21,4.1A21.64,21.64,0,0,0,229.83,5h-8.55a29.52,29.52,0,0,1-6.43,7.51l-1.11-.94A27.5,27.5,0,0,0,221.86.7l1.39.48a19.18,19.18,0,0,1-1.2,2.47h8.52l1,.6c-1.63,7.58-6.24,14.11-13.32,17l-1-1.2a19.8,19.8,0,0,0,8.25-6.1,39.9,39.9,0,0,0-6.21-4.17Z"/><path class="text01_svg" d="M246.12,21.19h-1.51V8.88a44.53,44.53,0,0,1-8.79,4.85l-.76-1.3c5.69-2,13.51-7.61,16.58-11.61l1.18.88a37.89,37.89,0,0,1-6.7,6.1Z"/><path class="text01_svg" d="M259.44,1.66V13H258V1.66Zm11.5-.29V10.3c0,5-2.4,8.69-7.78,10.89l-1-1.24c5.19-2,7.23-5.28,7.23-9.68V1.37Z"/><path class="text01_svg" d="M276.31,8.55a22.73,22.73,0,0,1,2.05,4.53l-1.06.44a19.87,19.87,0,0,0-2-4.5Zm11.3-.15a15.31,15.31,0,0,1-8.67,11.71l-.77-1a13.67,13.67,0,0,0,8.25-10.95Zm-7.22-.74a24,24,0,0,1,1.82,4.63l-1.06.43a21.19,21.19,0,0,0-1.8-4.63Z"/><path class="text01_svg" d="M298.06,10.32l-.67,1.2A41.77,41.77,0,0,0,291,8.67l.64-1.21A43.6,43.6,0,0,1,298.06,10.32Zm10.65-2.88,1,1.06c-3.24,5.4-10,10.61-16.63,12.5l-.72-1.39C298.8,17.93,305.59,12.82,308.71,7.44Zm-8.2-2.35-.68,1.17a39.93,39.93,0,0,0-6.26-3l.67-1.2A45.11,45.11,0,0,1,300.51,5.09Z"/><path class="text01_svg" d="M326.73,18.83h-14V17.71h9.07l1-8.56h-8.1V8.05h9.44L323,17.71h3.72Z"/><path class="text01_svg" d="M335.76,4.37A32.25,32.25,0,0,0,336.58.6L338,.77c-.19,1.05-.45,2.28-.81,3.6h4.41V5.66h-4.77A42.77,42.77,0,0,1,332,16.78L330.77,16A37.93,37.93,0,0,0,335.4,5.66h-4V4.37Zm10.11,3.57c0,.58,0,1.44,0,2.36,0,1.56,0,3.43,0,4.89a18.17,18.17,0,0,1,4.53,2.67l-.84,1.05a16.83,16.83,0,0,0-3.67-2.4v.6c0,2.64-1.34,4.06-4.3,4.06-2.78,0-4.68-1.58-4.68-3.46,0-2,1.73-3.45,4.66-3.45a9.89,9.89,0,0,1,2.95.48c0-1.37,0-3,0-4.42V7.94Zm-4.32,7.47c-2.16,0-3.41.89-3.41,2.3,0,1.23,1.46,2.24,3.31,2.24,2.14,0,3.1-.92,3.1-2.84V16A10,10,0,0,0,341.55,15.41Zm8.61-7.56a33.67,33.67,0,0,0-6-3.34l.67-1.13a41.76,41.76,0,0,1,6.07,3.32Z"/><path class="text01_svg" d="M9.84,50.34,9,44.82l-7.75,1L1,44.48l7.73-1L8,38.89l1.49-.22.74,4.63,7.45-1,.19,1.32-7.42,1,.89,5.53L20,49l.19,1.32-8.6,1.13,1.23,7.58-1.47.24-1.24-7.63L.72,52.88.48,51.54Z"/><path class="text01_svg" d="M30.15,48.35l-1.08-4.81,1.32-.28,1.08,4.82,8.32-1.66,1.08.68a45,45,0,0,1-3.33,6.31l-1.13-.55a28.38,28.38,0,0,0,2.74-5l-7.4,1.47L33.91,59l-1.29.34-2.19-9.7-5,1-.27-1.25Z"/><path class="text01_svg" d="M53.64,44.86a3.15,3.15,0,0,1,2.28-1.29,3.33,3.33,0,0,1,2.47,1.51,85.53,85.53,0,0,0,10.8,10.71l-1,1.15A105.48,105.48,0,0,1,57.75,46.52c-.72-.82-1.28-1.22-1.83-1.22s-1.08.38-1.7,1.1C53,47.77,49.87,51.54,48,53.84l-1.2-1C48.84,50.6,52.25,46.47,53.64,44.86Zm7.9-3A19.27,19.27,0,0,1,64.2,45.3l-.81.57a18.62,18.62,0,0,0-2.6-3.41Zm2.81-1.23A19,19,0,0,1,67,44.07l-.82.58a16.23,16.23,0,0,0-2.59-3.41Z"/><path class="text01_svg" d="M75.39,41.94a35,35,0,0,1,3.09,6.79l-1.27.55a31.26,31.26,0,0,0-3-6.74ZM92,41.65c-1.39,7.85-5.81,14.26-12.91,17.5l-.91-1.25c7-3.07,11.11-9,12.33-16.52Zm-10.68-1a36.24,36.24,0,0,1,2.74,7l-1.32.5a31.94,31.94,0,0,0-2.67-6.94Z"/><path class="text01_svg" d="M104.81,40V38h1.34v2h6.2V38h1.36v2h6.51v1.13h-6.51V43h-1.36V41.12h-6.2V43h-1.34V41.12H98.38V40Zm-5.69,7.54a18.9,18.9,0,0,1,4.27,2.59l-.86,1a18.41,18.41,0,0,0-4.13-2.62Zm3.77,5.54.89.84a46.13,46.13,0,0,1-3.84,6L98.88,59A40.18,40.18,0,0,0,102.89,53.07ZM100.2,42.94a21.23,21.23,0,0,1,4.3,2.52l-.87,1a18.11,18.11,0,0,0-4.15-2.54Zm7.85,16.23v.74h-1.34V53.19c-.61.24-1.25.48-1.88.7l-.86-1a24.85,24.85,0,0,0,7.2-3.41,17.23,17.23,0,0,1-3-3.17,18.41,18.41,0,0,1-3,2.43l-1-.72a14.7,14.7,0,0,0,5.5-5.67l1.37.12a10.23,10.23,0,0,1-.84,1.44h6.07l1,.41a14.11,14.11,0,0,1-4,5.12,23.9,23.9,0,0,0,7.12,3.24l-.84,1.08c-.64-.2-1.27-.41-1.89-.65v6.81h-1.39v-.74Zm8.62-6.46a23.33,23.33,0,0,1-4.49-2.49,28,28,0,0,1-4.37,2.49ZM116.19,58V53.84h-8.14V58Zm-4-9.31A13.13,13.13,0,0,0,115.35,45h-6c-.1.12-.22.24-.31.36A14.92,14.92,0,0,0,112.18,48.71Z"/><path class="text01_svg" d="M141.17,45.73c-6.31,2.09-13.35,4.68-13.35,8.5,0,2.23,2.38,3.45,7.81,3.45a48,48,0,0,0,7-.5l.14,1.44a54.5,54.5,0,0,1-7.1.43c-6.13,0-9.27-1.58-9.27-4.78,0-2.64,2.4-4.68,5.76-6.43-1.41-2.09-1.63-4.49-1.63-9.1H132c0,4.44.14,6.72,1.39,8.5,2.23-1.06,4.75-2,7.25-2.88Z"/><path class="text01_svg" d="M152.11,39c-.21,5.25-.24,10.3-.24,12.72,0,4.34,1.54,6,5,6s6-1.77,7.72-7.34l1.35.65c-2.09,6.17-5.14,8.11-9.12,8.11-4.44,0-6.36-2.54-6.36-7.39,0-2.38.07-7.54.09-12.77Z"/><path class="text01_svg" d="M186,52.69V50.62H173.88V43.3H181v-2h-9.91V40.23H181V38h1.37v2.21h10.22v1.08H182.33v2h7.44v7.32h-2.42v2.07h5.35v1.1h-5.35v4.44c0,.92-.32,1.47-1.2,1.59-.65.09-2.43.07-3.63,0l-.21-1.25c1,.05,2.59.05,3,0s.62-.24.62-.65v-4.2H170.86v-1.1ZM175.22,46.5H181V44.34h-5.74Zm0,3.12H181V47.38h-5.74Zm1.18,4.73A24.39,24.39,0,0,1,181,57.73l-1.06.79a24.73,24.73,0,0,0-4.44-3.38A5.38,5.38,0,0,0,176.4,54.35Zm12-7.85V44.34h-6V46.5Zm0,3.12V47.38h-6v2.24Z"/><path class="text01_svg" d="M209.09,52.28v7.2h-1.32v-7.2h-6.62a17.3,17.3,0,0,1-2.91,7.63l-1.15-.84c2.33-3.14,3-7,3-11.13V39.15h17v18.7c0,1.13-.31,1.8-1.44,2a23.45,23.45,0,0,1-3.21,0,12.06,12.06,0,0,0-.22-1.32,21.07,21.07,0,0,0,2.69,0c.67,0,.81-.36.81-.93V52.28ZM207.77,51V46.28h-6.34V48a25.75,25.75,0,0,1-.14,3Zm0-6V40.4h-6.34V45Zm7.94,0V40.4h-6.62V45Zm0,6V46.28h-6.62V51Z"/><path class="text01_svg" d="M228.65,59.27l-1.08-1.13c5.09-2.5,6.29-5.35,6.38-10.44h-9.86V46.38h19.56V47.7h-8.23C235.27,53.07,233.91,56.46,228.65,59.27Zm12.07-18.73v1.35h-14V40.54Zm.36-1.84A18.3,18.3,0,0,1,243.65,42l-.74.53a18.37,18.37,0,0,0-2.52-3.32ZM243.19,37a18.71,18.71,0,0,1,2.62,3.31l-.74.55a16.75,16.75,0,0,0-2.55-3.31Z"/><path class="text01_svg" d="M257.26,42.18c-1.06,5.78-3.39,12-6.36,16l-1.32-.75c3-3.86,5.32-10,6.19-15.5Zm13.41,15.14-1.51.48a60.09,60.09,0,0,0-6.62-15.74l1.37-.6A68.47,68.47,0,0,1,270.67,57.32Zm-4.29-18.94a20.11,20.11,0,0,1,1.92,4l-.94.38a18.22,18.22,0,0,0-1.87-3.93Zm3.12-.67a19.05,19.05,0,0,1,1.92,4l-.94.41a17.73,17.73,0,0,0-1.87-4Z"/><path class="text01_svg" d="M286.92,59.19h-1.51V46.88a44.26,44.26,0,0,1-8.79,4.85l-.76-1.3c5.69-2,13.51-7.61,16.58-11.61l1.18.88a37.89,37.89,0,0,1-6.7,6.1Z"/><path class="text01_svg" d="M318.82,58.28l-1.3.91a55.68,55.68,0,0,0-7.41-7.56,30.24,30.24,0,0,1-9.27,7.54l-.93-1.2c6.6-3.14,12.24-10.06,13.87-15.43H301.35V41.19h13.27l1,.58A28.86,28.86,0,0,1,311,50.55,70.82,70.82,0,0,1,318.82,58.28Z"/></g></g></svg>